<svg width="1600" height="1200" viewBox="0 0 1600 1200" fill="none" xmlns="http://www.w3.org/2000/svg">
  <defs>
    <linearGradient id="bg" x1="180" y1="64" x2="1424" y2="1108" gradientUnits="userSpaceOnUse">
      <stop stop-color="#120F29"/>
      <stop offset="0.44" stop-color="#1A1D3F"/>
      <stop offset="1" stop-color="#090B17"/>
    </linearGradient>
    <radialGradient id="coreA" cx="0" cy="0" r="1" gradientUnits="userSpaceOnUse" gradientTransform="translate(515 501) rotate(18.4742) scale(484.987 343.957)">
      <stop stop-color="#7BE7FF"/>
      <stop offset="0.44" stop-color="#6A6BFF"/>
      <stop offset="1" stop-color="#6A6BFF" stop-opacity="0"/>
    </radialGradient>
    <radialGradient id="coreB" cx="0" cy="0" r="1" gradientUnits="userSpaceOnUse" gradientTransform="translate(1069 443) rotate(160.675) scale(480.397 323.534)">
      <stop stop-color="#FF57AE"/>
      <stop offset="0.48" stop-color="#8A59FF"/>
      <stop offset="1" stop-color="#8A59FF" stop-opacity="0"/>
    </radialGradient>
    <radialGradient id="coreC" cx="0" cy="0" r="1" gradientUnits="userSpaceOnUse" gradientTransform="translate(958 761) rotate(102.339) scale(525.02 407.003)">
      <stop stop-color="#FF9866"/>
      <stop offset="0.42" stop-color="#FF5D8F"/>
      <stop offset="1" stop-color="#FF5D8F" stop-opacity="0"/>
    </radialGradient>
    <linearGradient id="stroke" x1="362" y1="278" x2="1217" y2="933" gradientUnits="userSpaceOnUse">
      <stop stop-color="white" stop-opacity="0.9"/>
      <stop offset="0.45" stop-color="#B6C6FF" stop-opacity="0.32"/>
      <stop offset="1" stop-color="white" stop-opacity="0.08"/>
    </linearGradient>
    <filter id="blurHeavy" x="36.1068" y="89.6646" width="1459.11" height="1087.32" filterUnits="userSpaceOnUse" color-interpolation-filters="sRGB">
      <feFlood flood-opacity="0" result="BackgroundImageFix"/>
      <feBlend mode="normal" in="SourceGraphic" in2="BackgroundImageFix" result="shape"/>
      <feGaussianBlur stdDeviation="64" result="effect1_foregroundBlur_1_3"/>
    </filter>
    <filter id="glass" x="182" y="146" width="1260" height="895" filterUnits="userSpaceOnUse" color-interpolation-filters="sRGB">
      <feFlood flood-opacity="0" result="BackgroundImageFix"/>
      <feGaussianBlur in="BackgroundImageFix" stdDeviation="5"/>
      <feComposite in2="SourceAlpha" operator="in" result="effect1_backgroundBlur_1_3"/>
      <feBlend mode="normal" in="SourceGraphic" in2="effect1_backgroundBlur_1_3" result="shape"/>
    </filter>
  </defs>
  <rect width="1600" height="1200" rx="48" fill="url(#bg)"/>
  <g opacity="0.92" filter="url(#blurHeavy)">
    <ellipse cx="536" cy="551" rx="253" ry="171" transform="rotate(17.562 536 551)" fill="url(#coreA)"/>
    <ellipse cx="1042" cy="434" rx="255" ry="174" transform="rotate(-18.9498 1042 434)" fill="url(#coreB)"/>
    <ellipse cx="929" cy="764" rx="321" ry="214" transform="rotate(-10.8996 929 764)" fill="url(#coreC)"/>
  </g>
  <g filter="url(#glass)">
    <path d="M333 635C415.68 529.026 528.089 455.043 639.76 478.404C751.431 501.765 766.111 636.318 889.636 658.415C1013.16 680.512 1168.75 590.153 1264 489" stroke="url(#stroke)" stroke-width="20" stroke-linecap="round"/>
    <path d="M325 760C417.154 685.719 526.296 663.773 653.554 692.431C780.811 721.088 897.235 819.219 1014.4 814.664C1092.51 811.628 1166.38 774.74 1236 704" stroke="url(#stroke)" stroke-width="14" stroke-linecap="round" opacity="0.85"/>
    <path d="M409 358C528.08 321.124 633.486 333.601 734.434 412.18C835.381 490.759 939.992 593.644 1058.21 570.95C1137.03 555.822 1210.62 506.505 1279 422" stroke="url(#stroke)" stroke-width="10" stroke-linecap="round" opacity="0.62"/>
  </g>
  <g opacity="0.56">
    <path d="M230 948H1370" stroke="white" stroke-opacity="0.18" stroke-width="2"/>
    <path d="M230 252H1370" stroke="white" stroke-opacity="0.08" stroke-width="2"/>
  </g>
  <g opacity="0.96">
    <circle cx="1186" cy="275" r="10" fill="white" fill-opacity="0.7"/>
    <circle cx="312" cy="881" r="6" fill="white" fill-opacity="0.5"/>
    <circle cx="959" cy="861" r="9" fill="#A9C6FF" fill-opacity="0.6"/>
  </g>
</svg>
